{
  "source": "C:\\Users\\Peter\\Desktop\\stuff\\MIUN\\quantitative_research\\video_compression\\videos\\UVG\\HoneyBee_1920x1080_120fps_420_8bit_YUV.y4m",
  "output": "C:\\Users\\Peter\\Desktop\\stuff\\MIUN\\quantitative_research\\video_compression\\compressed_videos\\UVG\\vp9\\2.5\\HoneyBee_1920x1080_120fps_420_8bit_YUV_vp9.webm",
  "codec": "vp9",
  "ok": "[yuv4mpegpipe @ 0000021e8a375340] Stream #0: not enough frames to estimate rate; consider increasing probesize\nInput #0, yuv4mpegpipe, from 'C:\\Users\\Peter\\Desktop\\stuff\\MIUN\\quantitative_research\\video_compression\\videos\\UVG\\HoneyBee_1920x1080_120fps_420_8bit_YUV.y4m':\n  Duration: 00:00:05.00, start: 0.000000, bitrate: 2985989 kb/s\n  Stream #0:0: Video: rawvideo (I420 / 0x30323449), yuv420p(progressive), 1920x1080, 120 fps, 120 tbr, 120 tbn\n[out#0/webm @ 0000021e8a379bc0] Codec AVOption b:a (set bitrate (in bits/s)) has not been used for any stream. The most likely reason is either wrong type (e.g. a video option with no video streams) or that it is a private option of some decoder which was not actually used for any stream.\nStream mapping:\n  Stream #0:0 -> #0:0 (rawvideo (native) -> vp9 (libvpx-vp9))\nPress [q] to stop, [?] for help\n[libvpx-vp9 @ 0000021e8a37cfc0] v1.15.2-100-g40561f514\nOutput #0, webm, to 'C:\\Users\\Peter\\Desktop\\stuff\\MIUN\\quantitative_research\\video_compression\\compressed_videos\\UVG\\vp9\\2.5\\HoneyBee_1920x1080_120fps_420_8bit_YUV_vp9.webm':\n  Metadata:\n    encoder         : Lavf62.3.100\n  Stream #0:0: Video: vp9, yuv420p(tv, progressive), 1920x1080, q=2-31, 2500 kb/s, 120 fps, 1k tbn\n    Metadata:\n      encoder         : Lavc62.11.100 libvpx-vp9\n    Side data:\n      cpb: bitrate max/min/avg: 0/0/0 buffer size: 2500000 vbv_delay: N/A\nframe=    4 fps=0.0 q=49.0 size=       0KiB time=00:00:00.03 bitrate= 115.4kbits/s speed=0.0658x elapsed=0:00:00.50    \nframe=   11 fps= 11 q=37.0 size=       0KiB time=00:00:00.09 bitrate=  42.0kbits/s speed=0.0885x elapsed=0:00:01.03    \nframe=   18 fps= 11 q=31.0 size=       0KiB time=00:00:00.15 bitrate=  25.7kbits/s speed=0.0954x elapsed=0:00:01.57    \nframe=   23 fps= 11 q=26.0 size=       0KiB time=00:00:00.19 bitrate=  20.1kbits/s speed=0.0914x elapsed=0:00:02.09    \nframe=   29 fps= 11 q=27.0 size=       0KiB time=00:00:00.24 bitrate=  15.9kbits/s speed=0.0925x elapsed=0:00:02.61    \nframe=   33 fps= 11 q=25.0 size=       0KiB time=00:00:00.27 bitrate=  14.0kbits/s speed=0.0878x elapsed=0:00:03.13    \nframe=   39 fps= 11 q=25.0 size=       0KiB time=00:00:00.32 bitrate=  11.8kbits/s speed=0.0886x elapsed=0:00:03.66    \nframe=   45 fps= 11 q=25.0 size=       0KiB time=00:00:00.37 bitrate=  10.3kbits/s speed=0.0897x elapsed=0:00:04.18    \nframe=   49 fps= 10 q=23.0 size=       0KiB time=00:00:00.40 bitrate=   9.4kbits/s speed=0.0869x elapsed=0:00:04.70    \nframe=   55 fps= 11 q=24.0 size=       0KiB time=00:00:00.45 bitrate=   8.4kbits/s speed=0.0878x elapsed=0:00:05.22    \nframe=   60 fps= 10 q=24.0 size=       0KiB time=00:00:00.50 bitrate=   7.7kbits/s speed=0.087x elapsed=0:00:05.74    \nframe=   65 fps= 10 q=23.0 size=       0KiB time=00:00:00.54 bitrate=   7.1kbits/s speed=0.0865x elapsed=0:00:06.26    \nframe=   71 fps= 10 q=25.0 size=       0KiB time=00:00:00.59 bitrate=   6.5kbits/s speed=0.0872x elapsed=0:00:06.78    \nframe=   75 fps= 10 q=23.0 size=       0KiB time=00:00:00.62 bitrate=   6.2kbits/s speed=0.0857x elapsed=0:00:07.29    \nframe=   81 fps= 10 q=24.0 size=       0KiB time=00:00:00.67 bitrate=   5.7kbits/s speed=0.0864x elapsed=0:00:07.81    \nframe=   87 fps= 10 q=24.0 size=       0KiB time=00:00:00.72 bitrate=   5.3kbits/s speed=0.087x elapsed=0:00:08.33    \nframe=   91 fps= 10 q=12.0 size=       0KiB time=00:00:00.75 bitrate=   5.1kbits/s speed=0.0856x elapsed=0:00:08.85    \nframe=   97 fps= 10 q=22.0 size=       0KiB time=00:00:00.80 bitrate=   4.8kbits/s speed=0.0863x elapsed=0:00:09.37    \nframe=  103 fps= 10 q=22.0 size=       0KiB time=00:00:00.85 bitrate=   4.5kbits/s speed=0.0868x elapsed=0:00:09.88    \nframe=  107 fps= 10 q=26.0 size=       0KiB time=00:00:00.89 bitrate=   4.3kbits/s speed=0.0856x elapsed=0:00:10.41    \nframe=  113 fps= 10 q=24.0 size=       0KiB time=00:00:00.94 bitrate=   4.1kbits/s speed=0.0861x elapsed=0:00:10.93    \nframe=  116 fps= 10 q=23.0 size=       0KiB time=00:00:00.96 bitrate=   4.0kbits/s speed=0.0844x elapsed=0:00:11.45    \nframe=  122 fps= 10 q=22.0 size=       0KiB time=00:00:01.01 bitrate=   3.8kbits/s speed=0.0849x elapsed=0:00:11.97    \nframe=  128 fps= 10 q=22.0 size=       0KiB time=00:00:01.06 bitrate=   3.6kbits/s speed=0.0854x elapsed=0:00:12.49    \nframe=  132 fps= 10 q=20.0 size=     512KiB time=00:00:01.10 bitrate=3813.0kbits/s speed=0.0845x elapsed=0:00:13.01    \nframe=  138 fps= 10 q=26.0 size=     512KiB time=00:00:01.15 bitrate=3647.2kbits/s speed=0.0851x elapsed=0:00:13.52    \nframe=  143 fps= 10 q=25.0 size=     512KiB time=00:00:01.19 bitrate=3519.7kbits/s speed=0.0848x elapsed=0:00:14.04    \nframe=  147 fps= 10 q=21.0 size=     512KiB time=00:00:01.22 bitrate=3423.9kbits/s speed=0.0841x elapsed=0:00:14.56    \nframe=  151 fps= 10 q=22.0 size=     512KiB time=00:00:01.25 bitrate=3333.2kbits/s speed=0.0834x elapsed=0:00:15.08    \nframe=  156 fps= 10 q=21.0 size=     512KiB time=00:00:01.30 bitrate=3226.4kbits/s speed=0.0833x elapsed=0:00:15.61    \nframe=  158 fps=9.8 q=21.0 size=     512KiB time=00:00:01.31 bitrate=3185.5kbits/s speed=0.0816x elapsed=0:00:16.13    \nframe=  163 fps=9.8 q=21.0 size=     512KiB time=00:00:01.35 bitrate=3087.8kbits/s speed=0.0816x elapsed=0:00:16.65    \nframe=  168 fps=9.8 q=21.0 size=     512KiB time=00:00:01.40 bitrate=2995.9kbits/s speed=0.0815x elapsed=0:00:17.17    \nframe=  173 fps=9.8 q=19.0 size=     512KiB time=00:00:01.44 bitrate=2909.3kbits/s speed=0.0815x elapsed=0:00:17.68    \nframe=  175 fps=9.6 q=23.0 size=     512KiB time=00:00:01.45 bitrate=2876.1kbits/s speed=0.0801x elapsed=0:00:18.20    \nframe=  180 fps=9.6 q=21.0 size=     512KiB time=00:00:01.50 bitrate=2796.2kbits/s speed=0.0801x elapsed=0:00:18.72    \nframe=  185 fps=9.6 q=20.0 size=     512KiB time=00:00:01.54 bitrate=2720.6kbits/s speed=0.0801x elapsed=0:00:19.25    \nframe=  188 fps=9.5 q=20.0 size=     512KiB time=00:00:01.56 bitrate=2677.2kbits/s speed=0.0792x elapsed=0:00:19.77    \nframe=  192 fps=9.5 q=22.0 size=     512KiB time=00:00:01.60 bitrate=2621.4kbits/s speed=0.0788x elapsed=0:00:20.30    \nframe=  198 fps=9.5 q=21.0 size=     512KiB time=00:00:01.65 bitrate=2542.0kbits/s speed=0.0792x elapsed=0:00:20.83    \nframe=  203 fps=9.5 q=22.0 size=     512KiB time=00:00:01.69 bitrate=2479.4kbits/s speed=0.0792x elapsed=0:00:21.35    \nframe=  206 fps=9.4 q=22.0 size=     512KiB time=00:00:01.71 bitrate=2443.3kbits/s speed=0.0785x elapsed=0:00:21.87    \nframe=  211 fps=9.4 q=20.0 size=     512KiB time=00:00:01.75 bitrate=2385.4kbits/s speed=0.0785x elapsed=0:00:22.40    \nframe=  216 fps=9.4 q=21.0 size=     512KiB time=00:00:01.80 bitrate=2330.2kbits/s speed=0.0785x elapsed=0:00:22.91    \nframe=  219 fps=9.3 q=12.0 size=     512KiB time=00:00:01.82 bitrate=2298.2kbits/s speed=0.0779x elapsed=0:00:23.42    \nframe=  224 fps=9.4 q=17.0 size=     512KiB time=00:00:01.86 bitrate=2246.9kbits/s speed=0.078x elapsed=0:00:23.94    \nframe=  229 fps=9.4 q=28.0 size=     512KiB time=00:00:01.90 bitrate=2197.9kbits/s speed=0.0779x elapsed=0:00:24.48    \nframe=  234 fps=9.4 q=21.0 size=     512KiB time=00:00:01.95 bitrate=2150.9kbits/s speed=0.078x elapsed=0:00:25.00    \nframe=  239 fps=9.4 q=29.0 size=     512KiB time=00:00:01.99 bitrate=2105.9kbits/s speed=0.078x elapsed=0:00:25.54    \nframe=  244 fps=9.4 q=22.0 size=     512KiB time=00:00:02.03 bitrate=2062.8kbits/s speed=0.078x elapsed=0:00:26.06    \nframe=  247 fps=9.3 q=25.0 size=     512KiB time=00:00:02.05 bitrate=2037.7kbits/s speed=0.0774x elapsed=0:00:26.58    \nframe=  253 fps=9.3 q=20.0 size=     512KiB time=00:00:02.10 bitrate=1989.4kbits/s speed=0.0777x elapsed=0:00:27.12    \nframe=  256 fps=9.3 q=20.0 size=     512KiB time=00:00:02.13 bitrate=1966.1kbits/s speed=0.0772x elapsed=0:00:27.64    \nframe=  262 fps=9.3 q=22.0 size=    1280KiB time=00:00:02.18 bitrate=4802.6kbits/s speed=0.0776x elapsed=0:00:28.14    \nframe=  268 fps=9.3 q=22.0 size=    1280KiB time=00:00:02.23 bitrate=4695.1kbits/s speed=0.0779x elapsed=0:00:28.66    \nframe=  272 fps=9.3 q=11.0 size=    1280KiB time=00:00:02.26 bitrate=4626.1kbits/s speed=0.0777x elapsed=0:00:29.17    \nframe=  278 fps=9.4 q=22.0 size=    1280KiB time=00:00:02.31 bitrate=4526.2kbits/s speed=0.078x elapsed=0:00:29.70    \nframe=  283 fps=9.4 q=21.0 size=    1280KiB time=00:00:02.35 bitrate=4446.3kbits/s speed=0.078x elapsed=0:00:30.23    \nframe=  286 fps=9.3 q=21.0 size=    1280KiB time=00:00:02.38 bitrate=4399.6kbits/s speed=0.0775x elapsed=0:00:30.74    \nframe=  291 fps=9.3 q=21.0 size=    1280KiB time=00:00:02.42 bitrate=4324.0kbits/s speed=0.0776x elapsed=0:00:31.26    \nframe=  297 fps=9.3 q=20.0 size=    1280KiB time=00:00:02.46 bitrate=4251.0kbits/s speed=0.0776x elapsed=0:00:31.77    \nframe=  301 fps=9.3 q=21.0 size=    1280KiB time=00:00:02.50 bitrate=4180.4kbits/s speed=0.0776x elapsed=0:00:32.31    \nframe=  305 fps=9.3 q=20.0 size=    1280KiB time=00:00:02.54 bitrate=4125.5kbits/s speed=0.0774x elapsed=0:00:32.84    \nframe=  310 fps=9.3 q=22.0 size=    1280KiB time=00:00:02.58 bitrate=4059.0kbits/s speed=0.0774x elapsed=0:00:33.36    \nframe=  315 fps=9.3 q=22.0 size=    1280KiB time=00:00:02.62 bitrate=3994.6kbits/s speed=0.0775x elapsed=0:00:33.88    \nframe=  318 fps=9.2 q=21.0 size=    1280KiB time=00:00:02.65 bitrate=3956.9kbits/s speed=0.077x elapsed=0:00:34.39    \nframe=  323 fps=9.2 q=21.0 size=    1280KiB time=00:00:02.69 bitrate=3895.6kbits/s speed=0.0771x elapsed=0:00:34.91    \nframe=  327 fps=9.2 q=21.0 size=    1280KiB time=00:00:02.72 bitrate=3848.0kbits/s speed=0.0769x elapsed=0:00:35.45    \nframe=  331 fps=9.2 q=23.0 size=    1280KiB time=00:00:02.75 bitrate=3801.5kbits/s speed=0.0767x elapsed=0:00:35.97    \nframe=  334 fps=9.2 q=21.0 size=    1280KiB time=00:00:02.78 bitrate=3767.3kbits/s speed=0.0763x elapsed=0:00:36.49    \nframe=  339 fps=9.2 q=18.0 size=    1280KiB time=00:00:02.82 bitrate=3711.8kbits/s speed=0.0763x elapsed=0:00:37.00    \nframe=  344 fps=9.2 q=21.0 size=    1280KiB time=00:00:02.86 bitrate=3657.8kbits/s speed=0.0764x elapsed=0:00:37.53    \nframe=  346 fps=9.1 q=20.0 size=    1280KiB time=00:00:02.88 bitrate=3636.7kbits/s speed=0.0758x elapsed=0:00:38.06    \nframe=  351 fps=9.1 q=21.0 size=    1280KiB time=00:00:02.92 bitrate=3584.9kbits/s speed=0.0758x elapsed=0:00:38.57    \nframe=  356 fps=9.1 q=21.0 size=    1280KiB time=00:00:02.96 bitrate=3534.5kbits/s speed=0.0759x elapsed=0:00:39.09    \nframe=  361 fps=9.1 q=21.0 size=    1280KiB time=00:00:03.00 bitrate=3485.6kbits/s speed=0.0759x elapsed=0:00:39.61    \nframe=  364 fps=9.1 q=24.0 size=    1280KiB time=00:00:03.03 bitrate=3456.8kbits/s speed=0.0756x elapsed=0:00:40.14    \nframe=  369 fps=9.1 q=22.0 size=    1280KiB time=00:00:03.07 bitrate=3410.0kbits/s speed=0.0756x elapsed=0:00:40.68    \nframe=  372 fps=9.0 q=21.0 size=    1280KiB time=00:00:03.10 bitrate=3382.5kbits/s speed=0.0752x elapsed=0:00:41.22    \nframe=  377 fps=9.0 q=22.0 size=    1280KiB time=00:00:03.14 bitrate=3337.6kbits/s speed=0.0752x elapsed=0:00:41.76    \nframe=  381 fps=9.0 q=22.0 size=    1280KiB time=00:00:03.17 bitrate=3302.6kbits/s speed=0.0751x elapsed=0:00:42.27    \nframe=  385 fps=9.0 q=11.0 size=    1280KiB time=00:00:03.20 bitrate=3268.3kbits/s speed=0.075x elapsed=0:00:42.79    \nframe=  392 fps=9.0 q=22.0 size=    2048KiB time=00:00:03.26 bitrate=5135.9kbits/s speed=0.0754x elapsed=0:00:43.31    \nframe=  398 fps=9.1 q=21.0 size=    2048KiB time=00:00:03.31 bitrate=5058.5kbits/s speed=0.0756x elapsed=0:00:43.84    \nframe=  402 fps=9.1 q=25.0 size=    2048KiB time=00:00:03.35 bitrate=5008.1kbits/s speed=0.0755x elapsed=0:00:44.36    \nframe=  407 fps=9.1 q=21.0 size=    2048KiB time=00:00:03.39 bitrate=4946.6kbits/s speed=0.0756x elapsed=0:00:44.88    \nframe=  413 fps=9.1 q=21.0 size=    2048KiB time=00:00:03.44 bitrate=4874.7kbits/s speed=0.0758x elapsed=0:00:45.40    \nframe=  415 fps=9.0 q=12.0 size=    2048KiB time=00:00:03.45 bitrate=4851.2kbits/s speed=0.0753x elapsed=0:00:45.91    \nframe=  420 fps=9.0 q=22.0 size=    2048KiB time=00:00:03.50 bitrate=4793.5kbits/s speed=0.0754x elapsed=0:00:46.44    \nframe=  425 fps=9.0 q=21.0 size=    2048KiB time=00:00:03.54 bitrate=4737.1kbits/s speed=0.0754x elapsed=0:00:46.97    \nframe=  429 fps=9.0 q=22.0 size=    2048KiB time=00:00:03.57 bitrate=4692.9kbits/s speed=0.0753x elapsed=0:00:47.49    \nframe=  433 fps=9.0 q=21.0 size=    2048KiB time=00:00:03.60 bitrate=4649.6kbits/s speed=0.0752x elapsed=0:00:48.01    \nframe=  438 fps=9.0 q=21.0 size=    2048KiB time=00:00:03.65 bitrate=4596.5kbits/s speed=0.0752x elapsed=0:00:48.52    \nframe=  443 fps=9.0 q=22.0 size=    2048KiB time=00:00:03.69 bitrate=4544.6kbits/s speed=0.0753x elapsed=0:00:49.04    \nframe=  446 fps=9.0 q=22.0 size=    2048KiB time=00:00:03.71 bitrate=4514.0kbits/s speed=0.075x elapsed=0:00:49.55    \nframe=  451 fps=9.0 q=21.0 size=    2048KiB time=00:00:03.75 bitrate=4464.0kbits/s speed=0.0751x elapsed=0:00:50.07    \nframe=  456 fps=9.0 q=21.0 size=    2048KiB time=00:00:03.80 bitrate=4415.1kbits/s speed=0.0751x elapsed=0:00:50.60    \nframe=  459 fps=9.0 q=23.0 size=    2048KiB time=00:00:03.82 bitrate=4386.2kbits/s speed=0.0748x elapsed=0:00:51.14    \nframe=  464 fps=9.0 q=22.0 size=    2048KiB time=00:00:03.86 bitrate=4338.9kbits/s speed=0.0748x elapsed=0:00:51.66    \nframe=  470 fps=9.0 q=23.0 size=    2048KiB time=00:00:03.91 bitrate=4283.5kbits/s speed=0.075x elapsed=0:00:52.20    \nframe=  474 fps=9.0 q=24.0 size=    2048KiB time=00:00:03.95 bitrate=4247.4kbits/s speed=0.0749x elapsed=0:00:52.72    \nframe=  479 fps=9.0 q=22.0 size=    2048KiB time=00:00:03.99 bitrate=4203.1kbits/s speed=0.075x elapsed=0:00:53.24    \nframe=  484 fps=9.0 q=22.0 size=    2048KiB time=00:00:04.03 bitrate=4159.6kbits/s speed=0.075x elapsed=0:00:53.77    \nframe=  489 fps=9.0 q=21.0 size=    2048KiB time=00:00:04.07 bitrate=4117.1kbits/s speed=0.0751x elapsed=0:00:54.29    \nframe=  491 fps=9.0 q=26.0 size=    2048KiB time=00:00:04.09 bitrate=4100.3kbits/s speed=0.0746x elapsed=0:00:54.81    \nframe=  495 fps=8.9 q=23.0 size=    2048KiB time=00:00:04.12 bitrate=4067.2kbits/s speed=0.0745x elapsed=0:00:55.35    \nframe=  498 fps=8.9 q=23.0 size=    2048KiB time=00:00:04.15 bitrate=4042.7kbits/s speed=0.0742x elapsed=0:00:55.91    \nframe=  500 fps=8.9 q=24.0 size=    2048KiB time=00:00:04.16 bitrate=4026.5kbits/s speed=0.0738x elapsed=0:00:56.43    \nframe=  503 fps=8.8 q=21.0 size=    2048KiB time=00:00:04.19 bitrate=4002.5kbits/s speed=0.0736x elapsed=0:00:56.97    \nframe=  506 fps=8.8 q=22.0 size=    2048KiB time=00:00:04.21 bitrate=3978.8kbits/s speed=0.0733x elapsed=0:00:57.51    \nframe=  510 fps=8.8 q=23.0 size=    2048KiB time=00:00:04.25 bitrate=3947.6kbits/s speed=0.0732x elapsed=0:00:58.04    \nframe=  512 fps=8.7 q=23.0 size=    2048KiB time=00:00:04.26 bitrate=3932.2kbits/s speed=0.0728x elapsed=0:00:58.57    \nframe=  516 fps=8.7 q=25.0 size=    2816KiB time=00:00:04.30 bitrate=5364.8kbits/s speed=0.0728x elapsed=0:00:59.09    \nframe=  521 fps=8.7 q=24.0 size=    2816KiB time=00:00:04.34 bitrate=5313.3kbits/s speed=0.0728x elapsed=0:00:59.61    \nframe=  525 fps=8.7 q=24.0 size=    2816KiB time=00:00:04.37 bitrate=5272.8kbits/s speed=0.0727x elapsed=0:01:00.14    \nframe=  527 fps=8.7 q=23.0 size=    2816KiB time=00:00:04.39 bitrate=5252.8kbits/s speed=0.0724x elapsed=0:01:00.66    \nframe=  531 fps=8.7 q=23.0 size=    2816KiB time=00:00:04.42 bitrate=5213.3kbits/s speed=0.0723x elapsed=0:01:01.20    \nframe=  534 fps=8.7 q=25.0 size=    2816KiB time=00:00:04.45 bitrate=5184.0kbits/s speed=0.0721x elapsed=0:01:01.72    \nframe=  539 fps=8.7 q=24.0 size=    2816KiB time=00:00:04.49 bitrate=5135.9kbits/s speed=0.0721x elapsed=0:01:02.26    \nframe=  542 fps=8.6 q=23.0 size=    2816KiB time=00:00:04.51 bitrate=5107.5kbits/s speed=0.0719x elapsed=0:01:02.80    \nframe=  544 fps=8.6 q=23.0 size=    2816KiB time=00:00:04.53 bitrate=5088.7kbits/s speed=0.0716x elapsed=0:01:03.35    \nframe=  548 fps=8.6 q=23.0 size=    2816KiB time=00:00:04.56 bitrate=5051.5kbits/s speed=0.0715x elapsed=0:01:03.87    \nframe=  553 fps=8.6 q=24.0 size=    2816KiB time=00:00:04.60 bitrate=5005.9kbits/s speed=0.0716x elapsed=0:01:04.39    \nframe=  557 fps=8.6 q=24.0 size=    2816KiB time=00:00:04.64 bitrate=4969.9kbits/s speed=0.0715x elapsed=0:01:04.93    \nframe=  559 fps=8.5 q=24.0 size=    2816KiB time=00:00:04.65 bitrate=4952.1kbits/s speed=0.0711x elapsed=0:01:05.47    \nframe=  563 fps=8.5 q=24.0 size=    2816KiB time=00:00:04.69 bitrate=4916.9kbits/s speed=0.0711x elapsed=0:01:05.99    \nframe=  569 fps=8.6 q=23.0 size=    2816KiB time=00:00:04.74 bitrate=4865.1kbits/s speed=0.0713x elapsed=0:01:06.51    \nframe=  572 fps=8.5 q=23.0 size=    2816KiB time=00:00:04.76 bitrate=4839.6kbits/s speed=0.0711x elapsed=0:01:07.04    \nframe=  576 fps=8.5 q=21.0 size=    2816KiB time=00:00:04.80 bitrate=4806.0kbits/s speed=0.0711x elapsed=0:01:07.55    \nframe=  576 fps=8.5 q=21.0 size=    2816KiB time=00:00:04.80 bitrate=4806.0kbits/s speed=0.0705x elapsed=0:01:08.07    \nframe=  576 fps=8.4 q=21.0 size=    2816KiB time=00:00:04.80 bitrate=4806.0kbits/s speed=0.07x elapsed=0:01:08.60    \nframe=  576 fps=8.3 q=21.0 size=    2816KiB time=00:00:04.80 bitrate=4806.0kbits/s speed=0.0694x elapsed=0:01:09.12    \nframe=  576 fps=8.3 q=21.0 size=    2816KiB time=00:00:04.80 bitrate=4806.0kbits/s speed=0.0689x elapsed=0:01:09.64    \n[out#0/webm @ 0000021e8a379bc0] video:3482KiB audio:0KiB subtitle:0KiB other streams:0KiB global headers:0KiB muxing overhead: 0.136655%\nframe=  600 fps=8.6 q=22.0 Lsize=    3486KiB time=00:00:05.00 bitrate=5712.1kbits/s speed=0.0716x elapsed=0:01:09.84    \n",
  "seconds": 69.96132183074951,
  "probe_out": {}
}